<svg xmlns="http://www.w3.org/2000/svg" viewBox="186.6 8.03 177.92 84.61" preserveAspectRatio="none"><path fill="#000000" d="M364.52,77.8c-3.41,5.42-8.66,7.01-14.93,6.93.46,2.01,3.49.3,5.56,1.88,1.32,1.01,1.61,2.48,1.4,4.03-44.68,6.12-46.15-3.76-90.78-3.98-11.93-.06-25.24,1.76-36.69,1.35s-21.48-7.78-32.33-11.59l5.65-4.82c-12.33-6.18-20.19-21.81-13.14-34.64,1.67-3.04,7.85-7.7,8.23-8.65.85-2.1-3.61-1.56-4.74-3.13-2.53-3.51,4.09-12.64,7.53-13.95,4.25-1.62,18.94-1.92,24.4-2.12,19.82-.76,10.5-2.27,29.71.59,3.88.58,15.01,2.76,16.32,6.53.81,2.33-.49,6.31,2.48,7.5,17.8,4.43,35.88,7.84,53.48,13.05,6.37,1.89,27.92,8.18,32.15,11.3.88.65,1.18,1.56,1.45,2.55-.64,4.51-14.31.94-17.66,3.94,5.41,4.85,13.23,4.22,19.45,7.37l-.48,5.55-10.01.92c3.19,4.14,8.49,3.81,12.94,5.44v3.96ZM312.75,47.16c-11.24-2.09-22.19-6.73-33.83-5.94l24.5,6.79c1.94.24,3.91.17,5.86.12,1.19-.03,3.71.73,3.47-.98ZM313.93,77.26c-10.15-1.96-20.17-1.54-30.4-1.95-6.53-.26-14.17-2.97-20.38.45,4.07.03,8.5,1.44,12.46,1.57,2.85.1,5.37-1.25,7.91-1.11,9.28.49,16.99,2.42,26.93,2.01,1.21-.05,3.7.75,3.47-.98Z"/></svg>
